<?xml version="1.0" ?><!DOCTYPE svg  PUBLIC '-//W3C//DTD SVG 1.1//EN'  'http://www.w3.org/Graphics/SVG/1.1/DTD/svg11.dtd'><svg height="21.531px" id="Capa_1" style="enable-background:new 0 0 21.469 21.531;" version="1.1" viewBox="0 0 21.469 21.531" width="21.469px" xml:space="preserve" xmlns="http://www.w3.org/2000/svg" xmlns:xlink="http://www.w3.org/1999/xlink"><g><path d="   M18.441,11.067c-2.571-3.587-5.271-5.103-8.01-4.963c-2.739,0.139-5.5,1.913-8.229,4.943l-0.018,0.02   C7.559,17.035,13.793,17.553,18.441,11.067z" style="fill-rule:evenodd;clip-rule:evenodd;fill:none;stroke:#231F20;stroke-width:1.0477;stroke-miterlimit:2.6131;"/><path d="M2.691,0c1.486,0,2.691,1.205,2.691,2.691   S4.178,5.383,2.691,5.383S0,4.178,0,2.691S1.205,0,2.691,0L2.691,0z M2.691,0.851c-1.017,0-1.841,0.824-1.841,1.841   s0.824,1.841,1.841,1.841s1.841-0.824,1.841-1.841S3.708,0.851,2.691,0.851z" style="fill-rule:evenodd;clip-rule:evenodd;fill:#231F20;"/><path d="M18.777,16.148c1.486,0,2.691,1.206,2.691,2.692   c0,1.486-1.205,2.691-2.691,2.691s-2.691-1.205-2.691-2.691C16.086,17.354,17.291,16.148,18.777,16.148L18.777,16.148z M18.777,17   c-1.017,0-1.841,0.824-1.841,1.841c0,1.016,0.824,1.84,1.841,1.84s1.841-0.824,1.841-1.84C20.618,17.824,19.794,17,18.777,17z" style="fill-rule:evenodd;clip-rule:evenodd;fill:#231F20;"/><circle cx="18.652" cy="2.754" r="1.841" style="fill-rule:evenodd;clip-rule:evenodd;fill:#231F20;"/><circle cx="18.652" cy="2.754" r="2.692" style="fill-rule:evenodd;clip-rule:evenodd;fill:#231F20;"/><circle cx="2.691" cy="18.777" r="1.841" style="fill-rule:evenodd;clip-rule:evenodd;fill:#231F20;"/><circle cx="2.691" cy="18.777" r="2.691" style="fill-rule:evenodd;clip-rule:evenodd;fill:#231F20;"/><line style="fill-rule:evenodd;clip-rule:evenodd;fill:none;stroke:#231F20;stroke-width:1.0477;stroke-miterlimit:2.6131;" x1="17.964" x2="14.505" y1="3.63" y2="7.088"/><line style="fill-rule:evenodd;clip-rule:evenodd;fill:none;stroke:#231F20;stroke-width:1.0477;stroke-miterlimit:2.6131;" x1="6.729" x2="3.271" y1="14.677" y2="18.136"/><circle cx="10.766" cy="10.766" r="2.691" style="fill-rule:evenodd;clip-rule:evenodd;fill:#231F20;"/></g><g/><g/><g/><g/><g/><g/><g/><g/><g/><g/><g/><g/><g/><g/><g/></svg>