<?xml version="1.0" ?><svg height="60px" version="1.1" viewBox="0 0 60 60" width="60px" xmlns="http://www.w3.org/2000/svg" xmlns:sketch="http://www.bohemiancoding.com/sketch/ns" xmlns:xlink="http://www.w3.org/1999/xlink"><title/><defs/><g fill="none" fill-rule="evenodd" id="flat" stroke="none" stroke-width="1"><g id="wikipedia"><path d="M30,60 C46.5685433,60 60,46.5685433 60,30 C60,13.4314567 46.5685433,0 30,0 C13.4314567,0 0,13.4314567 0,30 C0,46.5685433 13.4314567,60 30,60 Z" fill="#262626"/><path d="M47.2826923,19.6153846 L40.1261538,19.6153846 L39.6146154,19.7082103 L39.6146154,20.4329802 C39.6146154,20.5181042 39.8588462,20.5894462 39.9265385,20.6425473 C39.9911538,20.7001074 40.1661538,20.7313195 40.2384615,20.7313195 L40.8869231,20.7653691 C41.6223077,20.8018508 41.8461538,20.970072 42.1323077,21.2538186 C42.4138462,21.547699 42.46,22.0462824 42.2403846,22.7471365 L35.9161538,40.1493161 L35.675,40.0735153 L31.6569231,30.5481415 C31.7153846,30.4050522 31.75,30.3247924 31.75,30.3247924 L35.0396154,23.1995097 C35.4219231,22.4479865 35.7923077,21.7763177 35.9807692,21.4633858 C36.3242308,20.8926497 36.4915385,20.784826 37.4276923,20.7349677 C37.6192308,20.7349677 37.6923077,20.6360617 37.6923077,20.4358177 L37.6923077,19.7151013 L37.6442308,19.637679 C37.6442308,19.637679 33.7123077,19.6234917 31.9215385,19.637679 L31.9230769,19.7126692 L31.9230769,20.4337909 C31.9230769,20.5217524 31.8773077,20.5918783 31.9403846,20.6449795 C32.0080769,20.7025395 32.0365385,20.7321302 32.1092308,20.7321302 L32.3773077,20.7682066 C33.1096154,20.8046883 33.4365385,21.0260106 33.5365385,21.1650465 C33.7115385,21.4143381 33.7926923,21.6802492 33.3696154,22.7503793 L30.8365385,28.5955595 L28.5476923,23.1735671 C27.7973077,21.4410914 27.6115385,20.9048103 28.7430769,20.8046883 L29.0473077,20.7305088 C29.265,20.7305088 29.2307692,20.6397099 29.2307692,20.4674352 L29.2307692,19.7094263 L29.2080769,19.6474074 C29.2080769,19.6474074 25.0157692,19.6474074 23.1030769,19.6486235 L23.0769231,19.7232083 L23.0769231,20.4832439 C23.0769231,20.6538972 23.2369231,20.6976753 23.5330769,20.7446961 C24.5923077,20.9052156 24.5742308,21.0337123 25.6207692,23.4386675 C25.7776923,23.7990257 26.2396154,24.8857752 26.2396154,24.8857752 L28.6261538,30.3138479 C28.6261538,30.3138479 28.8965385,31.0110539 29.3203846,32.0933445 L25.8526923,40.104322 L25.6542308,40.0455459 C25.6542308,40.0455459 20.2734615,26.9044297 18.7169231,22.5075733 C18.5530769,22.0547948 18.4819231,21.7159202 18.4819231,21.5071638 C18.4819231,21.0604656 18.8296154,20.8184702 19.5253846,20.7860421 L20.5830769,20.7459122 C20.7992308,20.7459122 21.1538462,20.650249 21.1538462,20.4512211 L21.1538462,19.7300993 L20.8353846,19.6555145 C20.8353846,19.6555145 14.2426923,19.6470021 12.9115385,19.6555145 L12.6923077,19.7300993 L12.6923077,20.4889188 C12.6923077,20.6251172 12.865,20.7098358 13.1642308,20.7459122 C13.9830769,20.7982026 14.5330769,20.948183 14.7911538,21.2011228 C15.0480769,21.4556841 15.3269231,22.0989782 15.6880769,23.1014144 C17.645,28.5428637 21.8042308,38.2534834 23.8288462,43.7849209 C24.4111538,45.2940475 25.1457692,45.5291519 26.0342308,43.7374947 C26.9492308,41.7723467 28.795,37.4103506 30.1411538,34.1906373 C31.4007692,37.4026489 33.1157692,41.7480256 33.9430769,43.7168217 C34.6019231,45.2924261 35.3530769,45.4480814 36.1146154,43.7638426 C38.1076923,38.6345146 43.93,23.1978883 43.93,23.1978883 C44.1815385,22.4402848 44.5330769,21.8565775 44.9861538,21.432579 C45.4353846,21.0138501 46.1046154,20.7771243 47.0430769,20.7309141 C47.2330769,20.7309141 47.3076923,20.6299814 47.3076923,20.4346016 L47.3076923,19.7098317 L47.2826923,19.6153846 L47.2826923,19.6153846 Z" fill="#FFFFFF"/></g></g></svg>